<?xml version="1.0" encoding="utf-8"?> <!-- Generator: IcoMoon.io --> <!DOCTYPE svg PUBLIC "-//W3C//DTD SVG 1.1//EN" "http://www.w3.org/Graphics/SVG/1.1/DTD/svg11.dtd"> <svg width="18.12586212158203" height="18.125825881958008" viewBox="0 0 18.12586212158203 18.125825881958008" xmlns="http://www.w3.org/2000/svg" xmlns:xlink="http://www.w3.org/1999/xlink" fill="#000000"><g><path d="M 17.63,14.377l-8.096-6.939C 9.911,6.729, 10.125,5.921, 10.125,5.063C 10.125,2.267, 7.858,0, 5.063,0 c-0.511,0-1.005,0.076-1.47,0.217l 2.925,2.925c 0.438,0.438, 0.438,1.153,0,1.591l-1.784,1.784 c-0.438,0.438-1.153,0.438-1.591,0L 0.217,3.592C 0.076,4.058,0,4.551,0,5.063c0,2.796, 2.267,5.063, 5.063,5.063 c 0.858,0, 1.667-0.214, 2.375-0.591l 6.939,8.096c 0.403,0.47, 1.090,0.496, 1.528,0.059l 1.784-1.784 C 18.126,15.467, 18.099,14.779, 17.63,14.377z"></path></g></svg>